<?xml version="1.0" encoding="utf-8"?>
<!-- Generator: Adobe Illustrator 16.0.4, SVG Export Plug-In . SVG Version: 6.00 Build 0)  -->
<!DOCTYPE svg PUBLIC "-//W3C//DTD SVG 1.1//EN" "http://www.w3.org/Graphics/SVG/1.1/DTD/svg11.dtd">
<svg version="1.1" id="Layer_1" xmlns="http://www.w3.org/2000/svg" xmlns:xlink="http://www.w3.org/1999/xlink" x="0px" y="0px"
	 width="297.641px" height="419.531px" viewBox="0 0 297.641 419.531" enable-background="new 0 0 297.641 419.531"
	 xml:space="preserve">
<g>
	<path fill="#171D11" d="M164.971,319.482c-1.439-49.896-5.39-165.094-7.229-207.333l-8.219-0.642c0,0,6.783,137.714,4.988,208.056
		L164.971,319.482z"/>
	<path fill="#171D11" d="M172.867,133.296c0,0,49.508,7.361,55.496-3.211c2.547-4.493,31.605-5.657,35.18-9.589
		c3.312-3.639,27.41-19.301-12.522-25.935c-19.076-3.17-36.26-4.236-49.896-7.704c-10.252-2.607-28.5-10.575-42.258-9.845
		c-6.479,0.345-31.191-1.062-39.395,0.663c-6.961,1.462-34.656,2.114-40.539,4.473c-2.224,0.891-6.269,2.703-10.879,4.86
		c-3.478,1.624-18.124-0.21-21.706,1.561c-6.221,3.073-0.941,9.648-3.057,11.128c-9.225,6.456,8.187,8.442,7.639,14.979
		c-0.687,8.183,22.646,13.675,40.66,16.306c9.941,1.451,28.773,0.335,34.851,2.05c10.787,3.045,13.414-1.222,31.863-1.366
		C168.795,131.584,172.867,133.296,172.867,133.296z"/>
</g>
</svg>
