<?xml version="1.0" encoding="utf-8"?>
<!-- Generator: Adobe Illustrator 15.1.0, SVG Export Plug-In . SVG Version: 6.00 Build 0)  -->
<!DOCTYPE svg PUBLIC "-//W3C//DTD SVG 1.1//EN" "http://www.w3.org/Graphics/SVG/1.1/DTD/svg11.dtd">
<svg version="1.1" id="Layer_1" xmlns="http://www.w3.org/2000/svg" xmlns:xlink="http://www.w3.org/1999/xlink" x="0px" y="0px"
	 width="1410px" height="296px" viewBox="0 0 1410 296" style="enable-background:new 0 0 1410 296;" xml:space="preserve">
<style type="text/css">
<![CDATA[
	.st0{fill:#EC2227;}
	.st1{fill:#214497;}
	.st2{fill:#FFFFFF;}
	.st3{fill:#010101;}
	.st4{fill:#06A14B;}
]]>
</style>
<path class="st2" d="M1392.236,272.569l-128.571-144.766l-1.831-2.065l0.516-2.713l19.668-103.326l2.709-14.28h-14.529h-59.115
	h-9.674l-2.073,9.446l-5.048,23.019l-2.44,11.125l-7.332-8.718l-25.738-30.583l-3.597-4.285h-5.597H257.326
	c-22.68,0-40.249,7.246-53.711,22.155c-11.279,12.488-15.585,26.056-16.038,27.566l-1.215,4.026l1.548,3.895l28.237,70.942
	l3.058,7.687h-8.272H94.757h-6.915l-3.479,5.973L10.521,274.503L0,292.58h20.918h1185.978h9.95l1.079-5.686l2.133-11.191
	l7.571,8.515l3.851,4.327l3.584,4.039h5.4h142.78H1410L1392.236,272.569z"/>
<path class="st3" d="M1250.417,128.872l21.478-112.837h-61.945l-12.349,56.307l-47.374-56.307H257.323
	c-19.501,0-34.493,6.104-45.828,18.653c-9.88,10.939-13.597,23.013-13.751,23.519l-0.142,0.467l37.259,93.635H93.948L18.469,281.947
	H1208.05l5.6-29.432l26.181,29.432h146.532L1250.417,128.872z"/>
<polygon class="st2" points="948.711,30.664 1046.021,265.62 1148.372,265.62 1040.707,30.664 "/>
<polygon class="st2" points="1227.79,134.788 1226.754,133.679 1227.122,132.205 1252.384,30.664 1223.678,30.664 1205.078,101.66 
	1203.683,106.993 1200.19,102.724 1141.402,30.664 1051.066,30.664 1179.647,189.353 1180.576,190.49 1180.159,191.901 
	1158.693,265.62 1191.162,265.62 1203.201,222.251 1204.549,217.399 1207.965,221.098 1249.111,265.62 1349.544,265.62 "/>
<path class="st2" d="M669.642,77.84h-82.534c-14.39,0-30.311,11.483-35.486,25.598l-28.415,77.514
	c-2.32,6.331-1.913,12.226,1.151,16.61c3.15,4.513,8.781,6.995,15.853,6.995h87.429c15.238,0,31.113-11.412,35.382-25.44
	l23.602-77.515c1.994-6.544,1.27-12.612-2.042-17.083C681.393,80.211,676.085,77.84,669.642,77.84z M633.754,176.589h-78.99
	l24.849-70.771h76.784L633.754,176.589z"/>
<polygon class="st2" points="870.988,79.612 843.165,202.956 926.239,202.956 931.307,176.166 878.165,176.166 892.787,106.404 
	920.383,106.404 953.434,202.998 986.675,202.998 935.35,79.612 "/>
<path class="st2" d="M800.709,155.189l-5.364,21.399h-78.879l19.956-70.771H842.14l0.956-4.038c1.524-6.47,0.404-12.514-3.157-17.01
	c-3.54-4.47-9.108-6.93-15.691-6.93h-82.525c-14.31,0-29.347,11.405-33.518,25.426l-23.055,77.516
	c-1.855,6.239-1.068,12.101,2.217,16.507c3.501,4.688,9.4,7.269,16.621,7.269l87.418,0.008c15.172,0,30.177-11.336,33.45-25.263
	l12.259-52.082h-69.512l-7.506,27.97L800.709,155.189L800.709,155.189z"/>
<path class="st2" d="M923.76,51.772l-609.266-0.151l49.34,118.841c-1.103,2.477-5.632,11.347-16.873,19.141
	c-12.834,8.859-29.809,13.338-50.407,13.338H87.605l19.909-35.998h154.667L217.377,53.05l1.738-3.267
	c5.598-10.541,22.229-19.118,37.065-19.118h658.83L923.76,51.772z"/>
<polygon class="st1" points="1012.73,265.605 1009.811,258.561 56.903,258.561 52.993,265.605 "/>
<polygon class="st4" points="1005.9,249.139 1003.477,243.382 65.273,243.382 62.075,249.139 "/>
<polygon class="st0" points="999.517,233.962 996.777,227.358 74.145,227.358 70.481,233.962 "/>
<polygon class="st2" points="510.135,79.462 491.998,126.105 433.666,126.105 453.029,79.462 364.882,79.5 395.582,141.24 
	369.083,202.941 401.763,202.941 421.129,156.308 480.255,156.308 462.121,202.941 494.798,202.941 541.063,79.462 "/>
</svg>
